<svg preserveAspectRatio="none" width="100%" height="100%" overflow="visible" style="display: block;" viewBox="0 0 40 40" fill="none" xmlns="http://www.w3.org/2000/svg">
<g id="Frame">
<path id="Vector" d="M17.9667 31.6344C17.7323 31.8685 17.4146 32 17.0833 32C16.7521 32 16.4344 31.8685 16.2 31.6344L5.78333 21.2178C5.54925 20.9834 5.41777 20.6657 5.41777 20.3344C5.41777 20.0032 5.54925 19.6855 5.78333 19.4511L16.2 9.03443C16.3528 8.86989 16.5471 8.74961 16.7625 8.68625C16.978 8.62289 17.2065 8.61881 17.424 8.67443C17.6415 8.73005 17.8401 8.84332 17.9986 9.0023C18.1572 9.16128 18.2699 9.36008 18.325 9.57777C18.3807 9.79506 18.3768 10.0233 18.3138 10.2386C18.2507 10.4539 18.1308 10.6482 17.9667 10.8011L9.68333 19.0844H33.75C34.0815 19.0844 34.3995 19.2161 34.6339 19.4505C34.8683 19.685 35 20.0029 35 20.3344C35 20.666 34.8683 20.9839 34.6339 21.2183C34.3995 21.4527 34.0815 21.5844 33.75 21.5844H9.68333L17.9667 29.8678C18.2007 30.1021 18.3322 30.4198 18.3322 30.7511C18.3322 31.0823 18.2007 31.4001 17.9667 31.6344Z" fill="var(--fill-0, #4F4F4F)"/>
</g>
</svg>
